<?xml version="1.0" encoding="iso-8859-1"?>
<!-- Generator: Adobe Illustrator 19.0.0, SVG Export Plug-In . SVG Version: 6.00 Build 0)  -->
<svg version="1.1" id="Layer_1" xmlns="http://www.w3.org/2000/svg" xmlns:xlink="http://www.w3.org/1999/xlink" x="0px" y="0px"
	 viewBox="0 0 512.001 512.001" height="250" width="250" style="enable-background:new 0 0 512.001 512.001;" xml:space="preserve">
<circle style="fill:#000001;" cx="254.482" cy="256" r="126.679"/>
<path style="opacity:0.1;fill:#231F20;enable-background:new    ;" d="M145.26,256.002c0-67.026,52.06-121.885,117.949-126.369
	c-2.885-0.196-5.793-0.304-8.728-0.304c-69.961,0-126.676,56.715-126.676,126.674c0,69.961,56.715,126.676,126.676,126.676
	c2.934,0,5.843-0.109,8.728-0.304C197.32,377.888,145.26,323.028,145.26,256.002z"/>
<g>
	<path style="fill:#ffffff;" d="M374.653,296.059c-7.773-12.665-21.746-21.114-37.697-21.114c-24.41,0-44.198,19.788-44.198,44.197
		c0,20.09,13.404,37.035,31.752,42.412C347.797,346.071,365.642,323.093,374.653,296.059z"/>
	<circle style="fill:#ffffff;" cx="206.333" cy="235.874" r="28.416"/>
	<path style="fill:#ffffff;" d="M311.62,205.648c0,8.804-7.138,15.94-15.939,15.94c-8.807,0-15.945-7.136-15.945-15.94
		c0-8.805,7.137-15.943,15.945-15.943C304.481,189.706,311.62,196.842,311.62,205.648z"/>
	<circle style="fill:#ffffff;" cx="254.439" cy="179.303" r="10.264"/>
</g>
<g>
	<path style="fill:#000001;" d="M511.248,198.891c-9.563-35.693-101.041-28.1-154.719-20.397c-0.541,0.077-1.061,0.208-1.559,0.384
		c3.64,4.739,6.949,9.746,9.899,14.978c37.323-5.056,69.443-6.582,93.166-4.395c25.511,2.352,36.05,8.6,37.407,13.664
		c1.264,4.722-4.001,14.658-22.576,28.378c-3.635,2.686-4.404,7.807-1.719,11.442c1.605,2.172,4.079,3.321,6.586,3.321
		c1.689,0,3.392-0.521,4.854-1.601C505.258,227.92,514.9,212.52,511.248,198.891z"/>
	<path style="fill:#000001;" d="M463.434,247.873c-2.287-3.898-7.3-5.202-11.198-2.916
		c-43.114,25.301-109.911,51.084-183.261,70.738c-65.494,17.549-128.535,28.239-177.51,30.097
		c-55.525,2.106-73.207-8.03-74.903-14.35c-1.355-5.059,4.639-15.733,25.529-30.513c19.97-14.13,49.581-29.298,85.726-43.946
		c-0.002-0.327-0.013-0.653-0.013-0.982c0-5.341,0.337-10.603,0.977-15.769c-1.424-0.235-2.928-0.105-4.366,0.472
		C74.134,260.862-8.796,300.006,0.759,335.677c4.766,17.784,30.358,26.767,76.146,26.767c4.836,0,9.896-0.1,15.182-0.3
		c50.159-1.905,114.484-12.787,181.124-30.643c74.708-20.019,142.979-46.419,187.307-72.432
		C464.415,256.783,465.721,251.77,463.434,247.873z"/>
</g>
<g>
</g>
<g>
</g>
<g>
</g>
<g>
</g>
<g>
</g>
<g>
</g>
<g>
</g>
<g>
</g>
<g>
</g>
<g>
</g>
<g>
</g>
<g>
</g>
<g>
</g>
<g>
</g>
<g>
</g>
</svg>
